<svg id="Componente_20_1" data-name="Componente 20 – 1" xmlns="http://www.w3.org/2000/svg" xmlns:xlink="http://www.w3.org/1999/xlink" width="215" height="215" viewBox="0 0 215 215">
  <defs>
    <style>
      .cls-1 {
        opacity: 0.15;
        fill: url(#linear-gradient);
      }

      .cls-2 {
        fill: #fff;
      }

      .cls-3 {
        opacity: 0.4;
        fill: url(#linear-gradient-2);
      }

      .cls-4 {
        fill: gray;
      }

      .cls-5 {
        fill: none;
      }
    </style>
    <linearGradient id="linear-gradient" y1="0.5" x2="1" y2="0.5" gradientUnits="objectBoundingBox">
      <stop offset="0" stop-color="#fff"/>
      <stop offset="1"/>
    </linearGradient>
    <linearGradient id="linear-gradient-2" x1="0" y1="0.5" x2="1.008" y2="0.5" xlink:href="#linear-gradient"/>
  </defs>
  <g id="Componente_12_1" data-name="Componente 12 – 1" transform="translate(16.2 15.81)">
    <ellipse id="Elipse_7" data-name="Elipse 7" class="cls-1" cx="78.433" cy="78.433" rx="78.433" ry="78.433" transform="translate(11.698 11.698)"/>
    <ellipse id="Elipse_8" data-name="Elipse 8" class="cls-2" cx="74.698" cy="74.698" rx="74.698" ry="74.698" transform="matrix(0.234, -0.972, 0.972, 0.234, 0, 145.23)"/>
    <path id="Caminho_31" data-name="Caminho 31" class="cls-3" d="M409.119,289.8a78.416,78.416,0,0,1-22.84,55.592,79.125,79.125,0,1,1,0-111.184,78.424,78.424,0,0,1,22.84,55.592Zm0,0a77.765,77.765,0,0,0-133.11-54.677A77.787,77.787,0,0,0,386.014,345.127a78.232,78.232,0,0,0,23.1-55.329Z" transform="translate(-240.556 -199.667)"/>
    <path id="Caminho_165" data-name="Caminho 165" class="cls-4" d="M84.39,40.029V19.345c0-5.941-12.358-8.673-23.85-8.673A65.045,65.045,0,0,0,49.7,11.54v-.867C49.7,4.732,37.341,2,25.85,2S2,4.732,2,10.673V75.717c0,5.941,12.358,8.673,23.85,8.673a63.742,63.742,0,0,0,12.272-1.171A32.479,32.479,0,0,0,84.39,40.029ZM70.9,27.237a31.829,31.829,0,0,0,9.15-2.645v9.583A32.739,32.739,0,0,0,70.9,27.237ZM25.85,19.345A47.4,47.4,0,0,0,45.363,15.92v7.762c-.347,1.214-6.851,4.336-19.513,4.336S6.683,24.852,6.336,23.682V15.92A47.4,47.4,0,0,0,25.85,19.345Zm-.26,26.018a29.964,29.964,0,0,0-1.908,8.673C12.407,53.689,6.553,50.87,6.336,49.7V41.937A47.7,47.7,0,0,0,25.59,45.363ZM6.336,62.708V54.946a44.317,44.317,0,0,0,17.345,3.426A32.479,32.479,0,0,0,25.5,67.045C13.1,67.045,6.683,63.879,6.336,62.708ZM27.5,41.027H25.85c-12.662,0-19.166-3.165-19.513-4.336V28.928A47.4,47.4,0,0,0,25.85,32.354a67.212,67.212,0,0,0,8.933-.564A32.652,32.652,0,0,0,27.5,41.027ZM60.54,15.009c12.705,0,19.21,3.166,19.513,4.336s-6.808,4.336-19.513,4.336A63.267,63.267,0,0,1,49.7,22.771V15.92a63.266,63.266,0,0,1,10.841-.911ZM25.85,6.336c12.575,0,19.08,3.122,19.513,4.336-.434,1.171-6.5,4.076-18.169,4.336H25.85c-12.662,0-19.166-3.166-19.513-4.336h0C6.683,9.5,13.188,6.336,25.85,6.336Zm0,73.717c-12.662,0-19.166-3.165-19.513-4.336V67.955A47.4,47.4,0,0,0,25.85,71.381h1.6a32.522,32.522,0,0,0,6.158,8.2,63.614,63.614,0,0,1-7.762.477ZM56.2,84.39A28.186,28.186,0,1,1,84.39,56.2,28.186,28.186,0,0,1,56.2,84.39Z" transform="translate(45 45)"/>
    <path id="Caminho_166" data-name="Caminho 166" class="cls-4" d="M25.057,27.345V17.372a5.594,5.594,0,0,1,4.336,3.816,2.23,2.23,0,0,0,4.336-1.041,10.32,10.32,0,0,0-8.673-7.025v-.954a2.168,2.168,0,0,0-4.336,0v.911a9.843,9.843,0,0,0-8.673,9.193,10.017,10.017,0,0,0,.217,1.995,10.364,10.364,0,0,0,8.456,7.415V41.7a5.594,5.594,0,0,1-4.336-3.816,2.23,2.23,0,0,0-4.336,1.041A10.234,10.234,0,0,0,20.72,45.9v.954a2.168,2.168,0,0,0,4.336,0V45.9a10.234,10.234,0,0,0,8.673-7.242,9.887,9.887,0,0,0,.217-1.908,9.887,9.887,0,0,0-8.889-9.41Zm-8.673-4.336a3.382,3.382,0,0,1,0-.954,5.334,5.334,0,0,1,4.336-4.727v9.5a5.637,5.637,0,0,1-4.336-3.6ZM29.393,37.666a5.594,5.594,0,0,1-4.336,3.816v-9.5a5.334,5.334,0,0,1,4.336,4.77A3.555,3.555,0,0,1,29.393,37.666Z" transform="translate(78.315 71.69)"/>
  </g>
  <rect id="Retângulo_119" data-name="Retângulo 119" class="cls-5" width="215" height="215"/>
</svg>
