<svg id="Componente_17_1" data-name="Componente 17 – 1" xmlns="http://www.w3.org/2000/svg" xmlns:xlink="http://www.w3.org/1999/xlink" width="215" height="215" viewBox="0 0 215 215">
  <defs>
    <style>
      .cls-1 {
        opacity: 0.15;
        fill: url(#linear-gradient);
      }

      .cls-2 {
        fill: #fff;
      }

      .cls-3 {
        opacity: 0.4;
        fill: url(#linear-gradient-2);
      }

      .cls-4 {
        fill: gray;
      }

      .cls-5 {
        fill: none;
      }
    </style>
    <linearGradient id="linear-gradient" y1="0.5" x2="1" y2="0.5" gradientUnits="objectBoundingBox">
      <stop offset="0" stop-color="#fff"/>
      <stop offset="1"/>
    </linearGradient>
    <linearGradient id="linear-gradient-2" x1="0" y1="0.5" x2="1.008" y2="0.5" xlink:href="#linear-gradient"/>
  </defs>
  <g id="Componente_7_1" data-name="Componente 7 – 1" transform="translate(9.2 6.234)">
    <ellipse id="Elipse_4" data-name="Elipse 4" class="cls-1" cx="78.433" cy="78.433" rx="78.433" ry="78.433" transform="translate(19.531 19.629)"/>
    <ellipse id="Elipse_5" data-name="Elipse 5" class="cls-2" cx="74.698" cy="74.698" rx="74.698" ry="74.698" transform="translate(0 58.777) rotate(-23.168)"/>
    <path id="Caminho_19" data-name="Caminho 19" class="cls-3" d="M737.26,289.8a78.409,78.409,0,0,1-22.841,55.592,79.124,79.124,0,1,1,0-111.184A78.424,78.424,0,0,1,737.26,289.8Zm0,0a77.767,77.767,0,0,0-133.112-54.677A77.787,77.787,0,0,0,714.154,345.127,78.244,78.244,0,0,0,737.26,289.8Z" transform="translate(-560.864 -191.736)"/>
    <path id="Caminho_142" data-name="Caminho 142" class="cls-4" d="M55.174,100.533H45.221a1.66,1.66,0,0,1-1.636-1.387L42.009,89.7a39.451,39.451,0,0,1-8.066-2.628l-6.835,6.725a1.658,1.658,0,0,1-2.14.159L16.92,88.1a1.659,1.659,0,0,1-.508-2.084l4.28-8.57a39.916,39.916,0,0,1-5.02-6.861L6.23,72.01a1.634,1.634,0,0,1-1.825-1.128L1.326,61.413a1.661,1.661,0,0,1,.813-1.984l8.5-4.423a37.238,37.238,0,0,1-.259-4.24,36.58,36.58,0,0,1,.262-4.24l-8.5-4.419a1.658,1.658,0,0,1-.813-1.984l3.076-9.469A1.64,1.64,0,0,1,6.23,29.526l9.449,1.417c.524-.909,1.092-1.8,1.689-2.667a1.657,1.657,0,0,1,2.724,1.888,35.133,35.133,0,0,0-2.067,3.381,1.645,1.645,0,0,1-1.709.853l-9.19-1.38L4.92,39.811l8.281,4.3a1.657,1.657,0,0,1,.879,1.7,36.259,36.259,0,0,0-.378,4.957,36.744,36.744,0,0,0,.375,4.957,1.657,1.657,0,0,1-.879,1.7L4.916,61.725l2.21,6.795,9.19-1.38A1.65,1.65,0,0,1,18.025,68a36.591,36.591,0,0,0,5.863,8.019,1.66,1.66,0,0,1,.289,1.891l-4.17,8.341,5.78,4.2L32.437,83.9a1.674,1.674,0,0,1,1.888-.312,36.065,36.065,0,0,0,9.422,3.069,1.657,1.657,0,0,1,1.344,1.36l1.536,9.2h7.14l1.533-9.2a1.657,1.657,0,0,1,1.344-1.36,36.149,36.149,0,0,0,9.429-3.069,1.66,1.66,0,0,1,1.884.312l6.652,6.546,5.776-4.2-4.164-8.341a1.655,1.655,0,0,1,.289-1.891A36.634,36.634,0,0,0,82.37,68a1.64,1.64,0,0,1,1.709-.856l9.194,1.377,2.206-6.795-8.281-4.3a1.657,1.657,0,0,1-.879-1.7,36.745,36.745,0,0,0,.375-4.957,36.743,36.743,0,0,0-.375-4.957,1.657,1.657,0,0,1,.879-1.7l8.281-4.306-2.21-6.795-9.19,1.38a1.667,1.667,0,0,1-1.709-.856,36.591,36.591,0,0,0-5.863-8.019,1.66,1.66,0,0,1-.289-1.891l4.17-8.341-5.783-4.2-6.652,6.549a1.661,1.661,0,0,1-1.888.312,36.065,36.065,0,0,0-9.422-3.069,1.657,1.657,0,0,1-1.344-1.36l-1.533-9.2h-7.14l-1.533,9.2a1.657,1.657,0,0,1-1.344,1.36,36.148,36.148,0,0,0-9.429,3.069,1.661,1.661,0,0,1-1.884-.312l-6.652-6.543-5.78,4.2,4.164,8.338A1.659,1.659,0,0,1,21.2,25.114l-4.794-9.6a1.66,1.66,0,0,1,.511-2.084l8.052-5.853a1.658,1.658,0,0,1,2.14.159l6.835,6.722a39.48,39.48,0,0,1,8.069-2.628l1.576-9.449A1.648,1.648,0,0,1,45.221,1h9.953A1.66,1.66,0,0,1,56.81,2.387l1.576,9.449a39.451,39.451,0,0,1,8.066,2.628l6.835-6.725a1.662,1.662,0,0,1,2.14-.159l8.056,5.853a1.659,1.659,0,0,1,.508,2.084l-4.28,8.57a39.915,39.915,0,0,1,5.02,6.861l9.442-1.42A1.64,1.64,0,0,1,96,30.654l3.079,9.469a1.661,1.661,0,0,1-.813,1.984l-8.5,4.423a38.624,38.624,0,0,1,.252,4.237,36.579,36.579,0,0,1-.262,4.24l8.5,4.419a1.658,1.658,0,0,1,.813,1.984l-3.076,9.469a1.629,1.629,0,0,1-1.825,1.128L84.719,70.59A40.12,40.12,0,0,1,79.7,77.451l4.277,8.566a1.663,1.663,0,0,1-.508,2.084l-8.052,5.853a1.662,1.662,0,0,1-2.14-.159l-6.835-6.722A39.481,39.481,0,0,1,58.376,89.7L56.8,99.15A1.642,1.642,0,0,1,55.174,100.533ZM50.2,64.038A13.271,13.271,0,1,1,63.468,50.767,13.284,13.284,0,0,1,50.2,64.038Zm0-23.224a9.953,9.953,0,1,0,9.953,9.953A9.965,9.965,0,0,0,50.2,40.813Z" transform="translate(47.754 46.776)"/>
    <path id="Caminho_143" data-name="Caminho 143" class="cls-4" d="M34.542,61.084A26.527,26.527,0,1,1,55.587,50.726a1.659,1.659,0,1,1-2.631-2.021A23.2,23.2,0,1,0,42.571,56.34a1.66,1.66,0,1,1,1.141,3.119A26.616,26.616,0,0,1,34.542,61.084Z" transform="translate(63.409 63.001)"/>
    <circle id="Elipse_13" data-name="Elipse 13" class="cls-4" cx="1.659" cy="1.659" r="1.659" transform="translate(111.223 115.791)"/>
  </g>
  <rect id="Retângulo_118" data-name="Retângulo 118" class="cls-5" width="215" height="215"/>
</svg>
