<svg id="Componente_22_1" data-name="Componente 22 – 1" xmlns="http://www.w3.org/2000/svg" xmlns:xlink="http://www.w3.org/1999/xlink" width="215" height="215" viewBox="0 0 215 215">
  <defs>
    <style>
      .cls-1 {
        opacity: 0.15;
        fill: url(#linear-gradient);
      }

      .cls-2 {
        fill: #fff;
      }

      .cls-3 {
        opacity: 0.4;
        fill: url(#linear-gradient-2);
      }

      .cls-4 {
        fill: gray;
      }

      .cls-5 {
        fill: none;
      }
    </style>
    <linearGradient id="linear-gradient" y1="0.5" x2="1" y2="0.5" gradientUnits="objectBoundingBox">
      <stop offset="0" stop-color="#fff"/>
      <stop offset="1"/>
    </linearGradient>
    <linearGradient id="linear-gradient-2" x1="0" y1="0.5" x2="1.008" y2="0.5" xlink:href="#linear-gradient"/>
  </defs>
  <g id="Componente_10_1" data-name="Componente 10 – 1" transform="translate(9.2 9.81)">
    <ellipse id="Elipse_4" data-name="Elipse 4" class="cls-1" cx="78.433" cy="78.433" rx="78.433" ry="78.433" transform="translate(19.629 19.629)"/>
    <path id="Caminho_177" data-name="Caminho 177" class="cls-2" d="M74.7,0A74.7,74.7,0,1,1,0,74.7,74.7,74.7,0,0,1,74.7,0Z" transform="translate(0 58.777) rotate(-23.168)"/>
    <path id="Caminho_19" data-name="Caminho 19" class="cls-3" d="M737.26,289.8a78.409,78.409,0,0,1-22.841,55.592,79.124,79.124,0,1,1,0-111.184A78.424,78.424,0,0,1,737.26,289.8Zm0,0a77.767,77.767,0,0,0-133.112-54.677A77.787,77.787,0,0,0,714.154,345.127,78.244,78.244,0,0,0,737.26,289.8Z" transform="translate(-560.765 -191.736)"/>
    <path id="Caminho_144" data-name="Caminho 144" class="cls-4" d="M10.519,6.038H25.707a1.519,1.519,0,0,0,0-3.038H10.519a1.519,1.519,0,0,0,0,3.038Z" transform="translate(68.318 55.987)"/>
    <path id="Caminho_145" data-name="Caminho 145" class="cls-4" d="M12.519,31.038h3.038a1.519,1.519,0,1,0,0-3.038H12.519a1.519,1.519,0,1,0,0,3.038Z" transform="translate(72.394 106.929)"/>
    <path id="Caminho_146" data-name="Caminho 146" class="cls-4" d="M45.009,92.13H11.594A7.6,7.6,0,0,1,4,84.536V8.594A7.6,7.6,0,0,1,11.594,1H45.009A7.6,7.6,0,0,1,52.6,8.594a1.519,1.519,0,0,1-3.038,0,4.562,4.562,0,0,0-4.557-4.557H11.594A4.562,4.562,0,0,0,7.038,8.594V84.536a4.562,4.562,0,0,0,4.557,4.557H45.009a4.562,4.562,0,0,0,4.557-4.557V69.348a1.519,1.519,0,0,1,3.038,0V84.536A7.6,7.6,0,0,1,45.009,92.13Z" transform="translate(58.13 51.912)"/>
    <path id="Caminho_147" data-name="Caminho 147" class="cls-4" d="M24.67,67.272a1.5,1.5,0,0,1-.55-.1,1.514,1.514,0,0,1-.969-1.416V53.6H15.557A4.562,4.562,0,0,1,11,49.046V9.557A4.562,4.562,0,0,1,15.557,5H58.084a4.562,4.562,0,0,1,4.557,4.557v39.49A4.562,4.562,0,0,1,58.084,53.6H37.868L25.79,66.78A1.529,1.529,0,0,1,24.67,67.272ZM15.557,8.038a1.521,1.521,0,0,0-1.519,1.519v39.49a1.521,1.521,0,0,0,1.519,1.519H24.67a1.519,1.519,0,0,1,1.519,1.519V61.85l9.891-10.793a1.527,1.527,0,0,1,1.121-.492H58.084A1.521,1.521,0,0,0,59.6,49.046V9.557a1.521,1.521,0,0,0-1.519-1.519Z" transform="translate(72.394 60.063)"/>
    <path id="Caminho_148" data-name="Caminho 148" class="cls-4" d="M24.6,33.3a7.513,7.513,0,0,0,7.594-7.594c0-3.448-2.342-5.96-6.959-7.467l-.343-.112c-1.731-.565-3.329-1.324-3.329-3.053A2.906,2.906,0,0,1,24.6,12.038a6.094,6.094,0,0,1,3.578,1.16,1.518,1.518,0,1,0,1.956-2.321A9.166,9.166,0,0,0,24.6,9a5.941,5.941,0,0,0-6.075,6.075c0,4.174,4.083,5.507,5.422,5.939l.343.112c3.278,1.069,4.866,2.57,4.866,4.581A4.457,4.457,0,0,1,24.6,30.264a6.146,6.146,0,0,1-4.86-2.43,1.519,1.519,0,1,0-2.433,1.82A9.221,9.221,0,0,0,24.6,33.3Z" transform="translate(84.618 68.213)"/>
    <path id="Caminho_149" data-name="Caminho 149" class="cls-4" d="M20.519,21.057a1.519,1.519,0,0,0,1.519-1.519V18.019a1.519,1.519,0,0,0-3.038,0v1.519A1.519,1.519,0,0,0,20.519,21.057Z" transform="translate(88.695 83.496)"/>
    <path id="Caminho_150" data-name="Caminho 150" class="cls-4" d="M20.519,12.557a1.519,1.519,0,0,0,1.519-1.519V9.519a1.519,1.519,0,0,0-3.038,0v1.519A1.519,1.519,0,0,0,20.519,12.557Z" transform="translate(88.695 66.176)"/>
  </g>
  <rect id="Retângulo_116" data-name="Retângulo 116" class="cls-5" width="215" height="215"/>
</svg>
