<svg id="Componente_19_1" data-name="Componente 19 – 1" xmlns="http://www.w3.org/2000/svg" xmlns:xlink="http://www.w3.org/1999/xlink" width="215" height="215" viewBox="0 0 215 215">
  <defs>
    <style>
      .cls-1 {
        opacity: 0.15;
        fill: url(#linear-gradient);
      }

      .cls-2 {
        fill: #fff;
      }

      .cls-3 {
        opacity: 0.4;
        fill: url(#linear-gradient-2);
      }

      .cls-4 {
        fill: gray;
      }

      .cls-5 {
        fill: none;
      }
    </style>
    <linearGradient id="linear-gradient" y1="0.5" x2="1" y2="0.5" gradientUnits="objectBoundingBox">
      <stop offset="0" stop-color="#fff"/>
      <stop offset="1"/>
    </linearGradient>
    <linearGradient id="linear-gradient-2" x1="0" y1="0.5" x2="1.008" y2="0.5" xlink:href="#linear-gradient"/>
  </defs>
  <g id="Componente_13_1" data-name="Componente 13 – 1" transform="translate(9.2 7.81)">
    <ellipse id="Elipse_1" data-name="Elipse 1" class="cls-1" cx="78.433" cy="78.433" rx="78.433" ry="78.433" transform="translate(19.63 19.629)"/>
    <ellipse id="Elipse_2" data-name="Elipse 2" class="cls-2" cx="74.698" cy="74.698" rx="74.698" ry="74.698" transform="translate(0 58.777) rotate(-23.168)"/>
    <path id="Caminho_6" data-name="Caminho 6" class="cls-3" d="M245.049,289.8a78.408,78.408,0,0,1-22.841,55.592,79.124,79.124,0,1,1,0-111.184A78.423,78.423,0,0,1,245.049,289.8Zm0,0a77.767,77.767,0,0,0-133.112-54.677A77.787,77.787,0,0,0,221.943,345.127,78.243,78.243,0,0,0,245.049,289.8Z" transform="translate(-68.554 -191.736)"/>
    <path id="Caminho_159" data-name="Caminho 159" class="cls-4" d="M170.271,120.73a16.206,16.206,0,0,0-15.095-22.114h-.153a.6.6,0,0,1-.557-.427,16.1,16.1,0,0,0-15.312-11.357h-.288a9.975,9.975,0,0,0-8.539,4.828,9.975,9.975,0,0,0-8.539-4.828H121.5a16.1,16.1,0,0,0-15.312,11.357.582.582,0,0,1-.553.427h-.158A16.206,16.206,0,0,0,90.383,120.73a16.215,16.215,0,0,0,.126,27.235,16.251,16.251,0,0,0,14.475,22.426,16.554,16.554,0,0,0,1.705-.037.606.606,0,0,1,.587.316,15.944,15.944,0,0,0,14.223,8.673h.288a9.975,9.975,0,0,0,8.539-4.828,9.975,9.975,0,0,0,8.539,4.828h.288a15.943,15.943,0,0,0,14.223-8.673.605.605,0,0,1,.587-.316,16.716,16.716,0,0,0,1.705.037,16.21,16.21,0,0,0,14.475-22.426,16.215,16.215,0,0,0,.126-27.235Zm-48.484,55.878H121.5a13.22,13.22,0,0,1-11.793-7.191,3.328,3.328,0,0,0-3.219-1.79,13.85,13.85,0,0,1-1.423.031,13.476,13.476,0,0,1,.412-26.945,13.527,13.527,0,0,1,6.332,1.573l1.284-2.414a16.23,16.23,0,0,0-21.321,5.654A13.483,13.483,0,0,1,91.6,123.2a16.219,16.219,0,0,0,21.662,5.841l-1.315-2.4a13.49,13.49,0,0,1-18.608-5.959A13.339,13.339,0,0,1,92,114.821a13.489,13.489,0,0,1,13.476-13.472h.159a3.3,3.3,0,0,0,3.168-2.37A13.351,13.351,0,0,1,121.5,89.566h.288a7.248,7.248,0,0,1,7.162,6.2,10.049,10.049,0,0,0-.054,1.04v18.06a8.892,8.892,0,0,0-6.147-2.5h0a6.2,6.2,0,0,1-6.192-6.192h-2.734a8.935,8.935,0,0,0,8.881,8.925h0a6.2,6.2,0,0,1,6.192,6.192v15.762a8.939,8.939,0,0,0-7.405,8.749h0a6.2,6.2,0,0,1-6.192,6.192v2.734a8.936,8.936,0,0,0,8.925-8.881h0a6.2,6.2,0,0,1,4.672-6V169.37a10.052,10.052,0,0,0,.054,1.04A7.249,7.249,0,0,1,121.788,176.608Zm47.094-31.082a16.23,16.23,0,0,0-21.321-5.654l1.284,2.414a13.5,13.5,0,0,1,18.328,5.75,13.516,13.516,0,0,1-11.583,19.622,13.7,13.7,0,0,1-1.423-.031,3.334,3.334,0,0,0-3.219,1.79,13.22,13.22,0,0,1-11.793,7.191h-.288a7.248,7.248,0,0,1-7.162-6.2,10.053,10.053,0,0,0,.054-1.04V153.956a8.89,8.89,0,0,0,6.017,2.38h0a6.2,6.2,0,0,1,6.192,6.192H146.7a8.935,8.935,0,0,0-8.881-8.925v0a6.2,6.2,0,0,1-6.062-4.927V130.059a8.938,8.938,0,0,0,7.428-8.753h0a6.2,6.2,0,0,1,6.192-6.192V112.38a8.936,8.936,0,0,0-8.925,8.881h0a6.2,6.2,0,0,1-4.695,6.008V96.8a10.049,10.049,0,0,0-.054-1.04,7.248,7.248,0,0,1,7.162-6.2h.288a13.35,13.35,0,0,1,12.694,9.415,3.3,3.3,0,0,0,3.167,2.37h.16a13.489,13.489,0,0,1,13.475,13.472A13.463,13.463,0,0,1,155.177,128.3a13.483,13.483,0,0,1-6.471-1.651l-1.315,2.4a16.219,16.219,0,0,0,21.662-5.841,13.483,13.483,0,0,1-.171,22.324Z" transform="translate(-32.033 -34.832)"/>
  </g>
  <rect id="Retângulo_120" data-name="Retângulo 120" class="cls-5" width="215" height="215"/>
</svg>
