<svg id="Componente_15_1" data-name="Componente 15 – 1" xmlns="http://www.w3.org/2000/svg" xmlns:xlink="http://www.w3.org/1999/xlink" width="215" height="215" viewBox="0 0 215 215">
  <defs>
    <style>
      .cls-1 {
        opacity: 0.15;
        fill: url(#linear-gradient);
      }

      .cls-2 {
        fill: #fff;
      }

      .cls-3 {
        opacity: 0.4;
        fill: url(#linear-gradient-2);
      }

      .cls-4 {
        fill: gray;
      }

      .cls-5 {
        fill: none;
      }
    </style>
    <linearGradient id="linear-gradient" y1="0.5" x2="1" y2="0.5" gradientUnits="objectBoundingBox">
      <stop offset="0" stop-color="#fff"/>
      <stop offset="1"/>
    </linearGradient>
    <linearGradient id="linear-gradient-2" x1="0" y1="0.5" x2="1.008" y2="0.5" xlink:href="#linear-gradient"/>
  </defs>
  <g id="Componente_5_1" data-name="Componente 5 – 1" transform="translate(17.2 14.01)">
    <ellipse id="Elipse_7" data-name="Elipse 7" class="cls-1" cx="78.433" cy="78.433" rx="78.433" ry="78.433" transform="translate(11.698 11.698)"/>
    <ellipse id="Elipse_8" data-name="Elipse 8" class="cls-2" cx="74.698" cy="74.698" rx="74.698" ry="74.698" transform="matrix(0.234, -0.972, 0.972, 0.234, 0, 145.23)"/>
    <path id="Caminho_31" data-name="Caminho 31" class="cls-3" d="M409.119,289.8a78.416,78.416,0,0,1-22.84,55.592,79.125,79.125,0,1,1,0-111.184,78.424,78.424,0,0,1,22.84,55.592Zm0,0a77.765,77.765,0,0,0-133.11-54.677A77.787,77.787,0,0,0,386.014,345.127a78.232,78.232,0,0,0,23.1-55.329Z" transform="translate(-240.556 -199.667)"/>
    <path id="Caminho_151" data-name="Caminho 151" class="cls-4" d="M84.77,141.933a31.169,31.169,0,0,0,5.52,3.289l1.449,5.011h7.4l.548-2.075h5.129l.509,2.036h7.439l1.958-6.851a12.849,12.849,0,0,0,3.289-11.119c-.078-.352-.157-.744-.235-1.1a14.407,14.407,0,0,0-7.517-8.848,16.677,16.677,0,0,0-2.741-1.1,18.439,18.439,0,0,0-5.324-.783,2,2,0,1,0,0,3.993,13.5,13.5,0,0,1,4.15.626,13.648,13.648,0,0,1,2.075.861,10.339,10.339,0,0,1,5.481,6.342,5.034,5.034,0,0,1,.157.744,8.846,8.846,0,0,1-2.31,7.713,3.228,3.228,0,0,0-.861,1.488l-1.175,4.072h-1.37l-.509-2.036-11.275-.039-.548,2.075h-1.37l-.666-2.349a3.64,3.64,0,0,0-1.918-2.232,25.5,25.5,0,0,1-4.659-2.7v-4.541h.626l3.876-5.168a2.061,2.061,0,0,0,.117-2.232l-.2-.509a3.95,3.95,0,0,0-.274-.587,1.148,1.148,0,0,1,.313.157,9.226,9.226,0,0,1,.979.587,5.646,5.646,0,0,1,1.644,1.958,1.987,1.987,0,1,0,3.563-1.762,9.657,9.657,0,0,0-2.78-3.367,12.578,12.578,0,0,0-1.527-.94h0a6.6,6.6,0,0,0-1.1-.47,9.36,9.36,0,0,0-3.015-.509h-.548a1.469,1.469,0,0,0-.392.039h-.47l-.274.157a2.326,2.326,0,0,0-1.37,1.409,2.626,2.626,0,0,0,.078,1.879,3.461,3.461,0,0,0,.392.744c.274.47.509.979.744,1.488a1.694,1.694,0,0,1,.2.47l-2.036,2.7L83.4,130.5v8.77A3.635,3.635,0,0,0,84.77,141.933Z" transform="translate(-10.688 -33.338)"/>
    <path id="Caminho_152" data-name="Caminho 152" class="cls-4" d="M100.707,97.538,99.415,89.9a3.554,3.554,0,0,0-3.445-2.741H89V43.472h11.119V31.452L51.769,5.3,3.026,31.452V43.472H14.184V87.124H7.176a3.572,3.572,0,0,0-3.445,2.858L2.478,97.46a2.536,2.536,0,0,0-.078.783,3.15,3.15,0,0,0,3.171,3.132H97.653a5.35,5.35,0,0,0,.744-.078,2.987,2.987,0,0,0,1.918-1.449A3.2,3.2,0,0,0,100.707,97.538ZM6.981,39.517V33.841l44.788-24,44.4,24v5.677Zm78.027,3.954V87.124H18.138V43.472Zm-78.5,53.91,1.057-6.3h88.01l1.057,6.3Z" transform="translate(38.6 36.7)"/>
  </g>
  <rect id="Retângulo_115" data-name="Retângulo 115" class="cls-5" width="215" height="215"/>
</svg>
